<svg xmlns="http://www.w3.org/2000/svg" viewBox="0 0 760 190" width="100%" role="img"><style>
text{font-family:-apple-system,BlinkMacSystemFont,'Segoe UI',Roboto,sans-serif;fill:#1a1a1a}
.muted{fill:#6a6a6a}.title{font-weight:600}
.bar{fill:#1c7ed6}.accent{fill:#1c7ed6}
.box{fill:#ffffff;stroke:#d4d9e0}.obox{fill:#eef5fc;stroke:#9dc4ea}
.track{stroke:#c9ccd1}.arrow{stroke:#9aa0a6;fill:none}
@media (prefers-color-scheme:dark){
 text{fill:#e8e8e8}.muted{fill:#9aa0a6}
 .bar{fill:#4dabf7}.accent{fill:#4dabf7}
 .box{fill:#1b2029;stroke:#333b45}.obox{fill:#132232;stroke:#2f5372}
 .track{stroke:#565c66}.arrow{stroke:#6b7480}
}
</style><rect x="25.0" y="126.3" width="27.7" height="23.7" rx="1.5" class="bar" opacity="0.16"/><rect x="54.7" y="126.8" width="27.7" height="23.2" rx="1.5" class="bar" opacity="0.16"/><rect x="84.3" y="95.0" width="27.7" height="55.0" rx="1.5" class="bar" opacity="0.16"/><rect x="114.0" y="123.2" width="27.7" height="26.8" rx="1.5" class="bar" opacity="0.16"/><rect x="143.7" y="137.4" width="27.7" height="12.6" rx="1.5" class="bar" opacity="0.16"/><rect x="173.3" y="134.5" width="27.7" height="15.5" rx="1.5" class="bar" opacity="0.16"/><rect x="203.0" y="131.9" width="27.7" height="18.1" rx="1.5" class="bar" opacity="0.16"/><rect x="232.7" y="131.8" width="27.7" height="18.1" rx="1.5" class="bar" opacity="0.16"/><rect x="262.3" y="126.5" width="27.7" height="23.5" rx="1.5" class="bar" opacity="0.16"/><rect x="292.0" y="129.7" width="27.7" height="20.3" rx="1.5" class="bar" opacity="0.16"/><rect x="321.7" y="125.9" width="27.7" height="24.1" rx="1.5" class="bar" opacity="0.16"/><rect x="351.3" y="114.1" width="27.7" height="35.9" rx="1.5" class="bar" opacity="0.16"/><rect x="381.0" y="84.0" width="27.7" height="66.0" rx="1.5" class="bar" opacity="0.16"/><rect x="410.7" y="107.3" width="27.7" height="42.7" rx="1.5" class="bar" opacity="0.16"/><rect x="440.3" y="112.2" width="27.7" height="37.8" rx="1.5" class="bar" opacity="0.16"/><rect x="470.0" y="116.8" width="27.7" height="33.2" rx="1.5" class="bar" opacity="0.16"/><rect x="499.7" y="124.4" width="27.7" height="25.6" rx="1.5" class="bar" opacity="0.16"/><rect x="529.3" y="124.6" width="27.7" height="25.4" rx="1.5" class="bar" opacity="0.16"/><rect x="559.0" y="124.8" width="27.7" height="25.2" rx="1.5" class="bar" opacity="0.16"/><rect x="588.7" y="119.6" width="27.7" height="30.4" rx="1.5" class="bar" opacity="0.16"/><rect x="618.3" y="120.8" width="27.7" height="29.2" rx="1.5" class="bar" opacity="0.16"/><rect x="648.0" y="119.7" width="27.7" height="30.3" rx="1.5" class="bar" opacity="0.16"/><rect x="677.7" y="118.3" width="27.7" height="31.7" rx="1.5" class="bar" opacity="0.16"/><rect x="707.3" y="118.5" width="27.7" height="31.5" rx="1.5" class="bar" opacity="0.16"/><line x1="24" y1="150.0" x2="736" y2="150.0" class="track" stroke-width="1.5"/><circle cx="24.0" cy="150.0" r="2.5" class="track" fill="none" stroke-width="1.5"/><circle cx="113.0" cy="150.0" r="2.5" class="track" fill="none" stroke-width="1.5"/><circle cx="202.0" cy="150.0" r="2.5" class="track" fill="none" stroke-width="1.5"/><circle cx="291.0" cy="150.0" r="2.5" class="track" fill="none" stroke-width="1.5"/><circle cx="380.0" cy="150.0" r="2.5" class="track" fill="none" stroke-width="1.5"/><circle cx="469.0" cy="150.0" r="2.5" class="track" fill="none" stroke-width="1.5"/><circle cx="558.0" cy="150.0" r="2.5" class="track" fill="none" stroke-width="1.5"/><circle cx="647.0" cy="150.0" r="2.5" class="track" fill="none" stroke-width="1.5"/><circle cx="736.0" cy="150.0" r="2.5" class="track" fill="none" stroke-width="1.5"/><line x1="560" y1="120.0" x2="560" y2="158.0" class="track" stroke-width="1.4" stroke-dasharray="3 3"/><path d="M 472.7,128.0 L 479.6,120.0 L 491.1,128.0" fill="none" class="track" stroke-width="1.2"/><line x1="475.0" y1="120.0" x2="488.8" y2="120.0" class="track" stroke-width="1.4"/><path d="M 452.0,133.8 Q 452.0,128.0 457.8,128.0 H 518.7 Q 534.8,128.0 534.8,141.8 V 148.7 Q 534.8,153.3 530.2,153.3 H 456.6 Q 452.0,153.3 452.0,147.6 Z" class="muted"/><rect x="454.3" y="145.2" width="75.9" height="3.4" rx="1.5" class="bar" opacity="0.85"/><rect x="460.1" y="133.8" width="10.3" height="6.9" rx="1.5" fill="#ffffff" opacity="0.5"/><rect x="475.0" y="133.8" width="10.3" height="6.9" rx="1.5" fill="#ffffff" opacity="0.5"/><rect x="489.9" y="133.8" width="10.3" height="6.9" rx="1.5" fill="#ffffff" opacity="0.5"/><rect x="504.9" y="133.8" width="10.3" height="6.9" rx="1.5" fill="#ffffff" opacity="0.5"/><path d="M 522.1,133.8 H 531.4 L 532.5,140.7 H 522.1 Z" fill="#ffffff" opacity="0.5"/><circle cx="463.5" cy="156.8" r="3.4" class="muted"/><circle cx="475.0" cy="156.8" r="3.4" class="muted"/><circle cx="509.5" cy="156.8" r="3.4" class="muted"/><circle cx="521.0" cy="156.8" r="3.4" class="muted"/><line x1="524" y1="120.0" x2="558" y2="120.0" class="arrow" stroke-width="1.4"/></svg>