<svg xmlns="http://www.w3.org/2000/svg" viewBox="0 0 760 464" width="100%" role="img"><style>
text{font-family:-apple-system,BlinkMacSystemFont,'Segoe UI',Roboto,sans-serif;fill:#1a1a1a}
.muted{fill:#6a6a6a}.title{font-weight:600}
.bar{fill:#1c7ed6}.line{stroke:#1c7ed6}.dot{fill:#1c7ed6}
.grid{stroke:#e2e5ea}.axis{stroke:#c9ccd1}.band{fill:#000;opacity:0.045}
.chip{stroke:#00000022;stroke-width:1}
@media (prefers-color-scheme:dark){
 text{fill:#e8e8e8}.muted{fill:#9aa0a6}
 .bar{fill:#4dabf7}.line{stroke:#4dabf7}.dot{fill:#4dabf7}
 .grid{stroke:#3a3f47}.axis{stroke:#565c66}.band{fill:#fff;opacity:0.06}
 .chip{stroke:#ffffff33}
}
</style><text x="0" y="26" class="title" font-size="16">How often a line ran a late trip</text><text x="0" y="46" class="muted" font-size="12">Share of trips with at least one stop arriving &gt;5 min late, by line. Bars use each line’s official colour. Friday 18 Sep 2026.</text><text x="52" y="93.0" text-anchor="end" font-size="12">SHL</text><rect x="60" y="79.0" width="553.0" height="18.0" rx="3" fill="#00954C" class="chip"/><text x="619.0" y="93.0" font-size="11">25.5%  <tspan class="muted">(47 trips)</tspan></text><text x="52" y="123.0" text-anchor="end" font-size="12">CCN</text><rect x="60" y="109.0" width="368.7" height="18.0" rx="3" fill="#D11F2F" class="chip"/><text x="434.7" y="123.0" font-size="11">17.0%  <tspan class="muted">(135 trips)</tspan></text><text x="52" y="153.0" text-anchor="end" font-size="12">SCO</text><rect x="60" y="139.0" width="336.2" height="18.0" rx="3" fill="#005AA3" class="chip"/><text x="402.2" y="153.0" font-size="11">15.5%  <tspan class="muted">(174 trips)</tspan></text><text x="52" y="183.0" text-anchor="end" font-size="12">BMT</text><rect x="60" y="169.0" width="318.8" height="18.0" rx="3" fill="#F99D1C" class="chip"/><text x="384.8" y="183.0" font-size="11">14.7%  <tspan class="muted">(75 trips)</tspan></text><text x="52" y="213.0" text-anchor="end" font-size="12">T2</text><rect x="60" y="199.0" width="305.8" height="18.0" rx="3" fill="#0098CD" class="chip"/><text x="371.8" y="213.0" font-size="11">14.1%  <tspan class="muted">(426 trips)</tspan></text><text x="52" y="243.0" text-anchor="end" font-size="12">T8</text><rect x="60" y="229.0" width="236.4" height="18.0" rx="3" fill="#00954C" class="chip"/><text x="302.4" y="243.0" font-size="11">10.9%  <tspan class="muted">(476 trips)</tspan></text><text x="52" y="273.0" text-anchor="end" font-size="12">T3</text><rect x="60" y="259.0" width="221.2" height="18.0" rx="3" fill="#F37021" class="chip"/><text x="287.2" y="273.0" font-size="11">10.2%  <tspan class="muted">(98 trips)</tspan></text><text x="52" y="303.0" text-anchor="end" font-size="12">T1</text><rect x="60" y="289.0" width="160.5" height="18.0" rx="3" fill="#F99D1C" class="chip"/><text x="226.5" y="303.0" font-size="11">7.4%  <tspan class="muted">(607 trips)</tspan></text><text x="52" y="333.0" text-anchor="end" font-size="12">T6</text><rect x="60" y="319.0" width="151.8" height="18.0" rx="3" fill="#7C3E21" class="chip"/><text x="217.8" y="333.0" font-size="11">7.0%  <tspan class="muted">(157 trips)</tspan></text><text x="52" y="363.0" text-anchor="end" font-size="12">T4</text><rect x="60" y="349.0" width="106.3" height="18.0" rx="3" fill="#005AA3" class="chip"/><text x="172.3" y="363.0" font-size="11">4.9%  <tspan class="muted">(387 trips)</tspan></text><text x="52" y="393.0" text-anchor="end" font-size="12">T5</text><rect x="60" y="379.0" width="80.2" height="18.0" rx="3" fill="#C4258F" class="chip"/><text x="146.2" y="393.0" font-size="11">3.7%  <tspan class="muted">(134 trips)</tspan></text><text x="52" y="423.0" text-anchor="end" font-size="12">T9</text><rect x="60" y="409.0" width="78.1" height="18.0" rx="3" fill="#D11F2F" class="chip"/><text x="144.1" y="423.0" font-size="11">3.6%  <tspan class="muted">(363 trips)</tspan></text></svg>